<svg width="64" height="64" viewBox="0 0 64 64" fill="none" xmlns="http://www.w3.org/2000/svg">
  <circle cx="32" cy="32" r="32" fill="#2775CA"/>
  <path d="M18.2 11.3C11.4 16 7 23.6 7 32s4.4 16 11.2 20.7l1.9-3.2C14 45.5 10.8 39.2 10.8 32c0-7.2 3.2-13.5 9.3-17.5l-1.9-3.2Z" fill="white"/>
  <path d="M44.8 11.3 42.9 14.5c6.1 4 9.3 10.3 9.3 17.5 0 7.2-3.2 13.5-9.3 17.5l1.9 3.2C52.6 48 57 40.4 57 32s-4.4-16-11.2-20.7Z" fill="white"/>
  <path d="M28.7 20.4c1.6-.3 3.3-.5 5.1-.5 5.7 0 9.5 2.7 9.5 7 0 4.3-3 6-7.8 7.2l-2.3.6c-3.9 1-5.9 2.1-5.9 4.5 0 2.6 2.3 4.2 6 4.2 2.7 0 5-.6 7.3-1.8l1.3 3.2c-2.6 1.3-5.6 2-8.7 2.1V49h-3.7v-2.8c-5.1-.6-8.4-3.5-8.4-7.6 0-4.5 3.4-6.5 8.2-7.8l2.5-.7c3.3-.9 5.4-1.8 5.4-4.1 0-2.3-2-3.8-5.4-3.8-2.5 0-4.9.5-6.9 1.5l-1.2-3.3Z" fill="white"/>
  <path d="M32 14v6" stroke="white" stroke-width="3" stroke-linecap="round"/>
  <path d="M32 44v6" stroke="white" stroke-width="3" stroke-linecap="round"/>
</svg>
