<svg width="128" height="128" viewBox="0 0 128 128" fill="none" xmlns="http://www.w3.org/2000/svg">
  <circle cx="64" cy="64" r="64" fill="#2775CA"/>
  <path d="M44 24.5C29.3 33.6 20 48.3 20 64c0 15.7 9.3 30.4 24 39.5" stroke="white" stroke-width="6" stroke-linecap="round" fill="none"/>
  <path d="M84 24.5c14.7 9.1 24 23.8 24 39.5 0 15.7-9.3 30.4-24 39.5" stroke="white" stroke-width="6" stroke-linecap="round" fill="none"/>
  <path d="M64 30.5v11" stroke="white" stroke-width="8" stroke-linecap="round"/>
  <path d="M64 86.5v11" stroke="white" stroke-width="8" stroke-linecap="round"/>
  <path d="M63.9 34C78.5 34 88 41.9 88 53.6c0 10.2-6.8 15.1-17.1 17.7l-6.1 1.5c-6.6 1.7-9.4 3.2-9.4 6.5 0 3.7 3.3 6.2 8.7 6.2 5 0 8.7-1.3 12.7-3.8l4.1 7.5c-4.3 2.9-9.6 4.7-15.7 5v7.4H52.5v-7.3C40.2 92 35 84.9 35 76.4c0-10.7 7.7-15.7 18.2-18.4l6-1.5c6.6-1.7 8.8-3.4 8.8-7 0-3.6-3.1-5.8-8.4-5.8-4.6 0-8.7 1.2-12.7 3.6l-3.9-7.7C47.9 36.1 55 34 63.9 34Z" fill="white"/>
</svg>
